<svg width="24" height="24" viewBox="0 0 24 24" fill="none" xmlns="http://www.w3.org/2000/svg">
<path d="M3.99997 10.0005L3.64597 10.3545L3.29297 10.0005L3.64597 9.64648L3.99997 10.0005ZM20.5 18.0005C20.5 18.1331 20.4473 18.2603 20.3535 18.354C20.2598 18.4478 20.1326 18.5005 20 18.5005C19.8674 18.5005 19.7402 18.4478 19.6464 18.354C19.5526 18.2603 19.5 18.1331 19.5 18.0005H20.5ZM8.64597 15.3545L3.64597 10.3545L4.35397 9.64648L9.35397 14.6465L8.64597 15.3545ZM3.64597 9.64648L8.64597 4.64648L9.35397 5.35448L4.35397 10.3545L3.64597 9.64648ZM3.99997 9.50048H14V10.5005H3.99997V9.50048ZM20.5 16.0005V18.0005H19.5V16.0005H20.5ZM14 9.50048C15.7239 9.50048 17.3772 10.1853 18.5962 11.4043C19.8151 12.6233 20.5 14.2766 20.5 16.0005H19.5C19.5 14.5418 18.9205 13.1428 17.8891 12.1114C16.8576 11.0799 15.4587 10.5005 14 10.5005V9.50048Z" fill="#232323"/>
</svg>
