<svg width="1432" height="1007" viewBox="0 0 1432 1007" fill="none" xmlns="http://www.w3.org/2000/svg">
<circle cx="21" cy="1" r="1" fill="#232323"/>
<circle cx="1" cy="1" r="1" transform="matrix(1 0 0 -1 21 1007)" fill="#232323"/>
<circle cx="1" cy="131" r="1" fill="#232323"/>
<circle cx="1" cy="1" r="1" transform="matrix(1 0 0 -1 1 877)" fill="#232323"/>
<circle cx="21" cy="101" r="1" fill="#232323"/>
<circle cx="1" cy="1" r="1" transform="matrix(1 0 0 -1 21 907)" fill="#232323"/>
<circle cx="1" cy="231" r="1" fill="#232323"/>
<circle cx="1" cy="1" r="1" transform="matrix(1 0 0 -1 1 777)" fill="#232323"/>
<circle cx="101" cy="201" r="1" fill="#232323"/>
<circle cx="1" cy="1" r="1" transform="matrix(1 0 0 -1 101 807)" fill="#232323"/>
<circle cx="81" cy="331" r="1" fill="#232323"/>
<circle cx="1" cy="1" r="1" transform="matrix(1 0 0 -1 81 677)" fill="#232323"/>
<circle cx="181" cy="231" r="1" fill="#232323"/>
<circle cx="1" cy="1" r="1" transform="matrix(1 0 0 -1 181 777)" fill="#232323"/>
<circle cx="161" cy="361" r="1" fill="#232323"/>
<circle cx="1" cy="1" r="1" transform="matrix(1 0 0 -1 161 647)" fill="#232323"/>
<circle cx="261" cy="170" r="1" fill="#232323"/>
<circle cx="1" cy="1" r="1" transform="matrix(1 0 0 -1 261 838)" fill="#232323"/>
<circle cx="241" cy="300" r="1" fill="#232323"/>
<circle cx="1" cy="1" r="1" transform="matrix(1 0 0 -1 241 708)" fill="#232323"/>
<circle cx="341" cy="359" r="1" fill="#232323"/>
<circle cx="1" cy="1" r="1" transform="matrix(1 0 0 -1 341 649)" fill="#232323"/>
<circle cx="321" cy="489" r="1" fill="#232323"/>
<circle cx="1" cy="1" r="1" transform="matrix(1 0 0 -1 321 519)" fill="#232323"/>
<circle cx="261" cy="548" r="1" fill="#232323"/>
<circle cx="1" cy="1" r="1" transform="matrix(1 0 0 -1 261 460)" fill="#232323"/>
<circle cx="241" cy="678" r="1" fill="#232323"/>
<circle cx="1" cy="1" r="1" transform="matrix(1 0 0 -1 241 330)" fill="#232323"/>
<circle cx="121" cy="607" r="1" fill="#232323"/>
<circle cx="1" cy="1" r="1" transform="matrix(1 0 0 -1 121 401)" fill="#232323"/>
<circle cx="101" cy="737" r="1" fill="#232323"/>
<circle cx="1" cy="1" r="1" transform="matrix(1 0 0 -1 101 271)" fill="#232323"/>
<circle cx="1110" cy="1" r="1" fill="#232323"/>
<circle cx="1" cy="1" r="1" transform="matrix(1 0 0 -1 1110 1007)" fill="#232323"/>
<circle cx="1090" cy="131" r="1" fill="#232323"/>
<circle cx="1" cy="1" r="1" transform="matrix(1 0 0 -1 1090 877)" fill="#232323"/>
<circle cx="1110" cy="101" r="1" fill="#232323"/>
<circle cx="1" cy="1" r="1" transform="matrix(1 0 0 -1 1110 907)" fill="#232323"/>
<circle cx="1090" cy="231" r="1" fill="#232323"/>
<circle cx="1" cy="1" r="1" transform="matrix(1 0 0 -1 1090 777)" fill="#232323"/>
<circle cx="1190" cy="201" r="1" fill="#232323"/>
<circle cx="1" cy="1" r="1" transform="matrix(1 0 0 -1 1190 807)" fill="#232323"/>
<circle cx="1170" cy="331" r="1" fill="#232323"/>
<circle cx="1" cy="1" r="1" transform="matrix(1 0 0 -1 1170 677)" fill="#232323"/>
<circle cx="1270" cy="231" r="1" fill="#232323"/>
<circle cx="1" cy="1" r="1" transform="matrix(1 0 0 -1 1270 777)" fill="#232323"/>
<circle cx="1250" cy="361" r="1" fill="#232323"/>
<circle cx="1" cy="1" r="1" transform="matrix(1 0 0 -1 1250 647)" fill="#232323"/>
<circle cx="1350" cy="170" r="1" fill="#232323"/>
<circle cx="1" cy="1" r="1" transform="matrix(1 0 0 -1 1350 838)" fill="#232323"/>
<circle cx="1330" cy="300" r="1" fill="#232323"/>
<circle cx="1" cy="1" r="1" transform="matrix(1 0 0 -1 1330 708)" fill="#232323"/>
<circle cx="1430" cy="359" r="1" fill="#232323"/>
<circle cx="1" cy="1" r="1" transform="matrix(1 0 0 -1 1430 649)" fill="#232323"/>
<circle cx="1410" cy="489" r="1" fill="#232323"/>
<circle cx="1" cy="1" r="1" transform="matrix(1 0 0 -1 1410 519)" fill="#232323"/>
<circle cx="1350" cy="548" r="1" fill="#232323"/>
<circle cx="1" cy="1" r="1" transform="matrix(1 0 0 -1 1350 460)" fill="#232323"/>
<circle cx="1330" cy="678" r="1" fill="#232323"/>
<circle cx="1" cy="1" r="1" transform="matrix(1 0 0 -1 1330 330)" fill="#232323"/>
<circle cx="1210" cy="607" r="1" fill="#232323"/>
<circle cx="1" cy="1" r="1" transform="matrix(1 0 0 -1 1210 401)" fill="#232323"/>
<circle cx="1190" cy="737" r="1" fill="#232323"/>
<circle cx="1" cy="1" r="1" transform="matrix(1 0 0 -1 1190 271)" fill="#232323"/>
</svg>
