<svg width="620" height="223" viewBox="0 0 620 223" fill="none" xmlns="http://www.w3.org/2000/svg">
<rect x="38.5" y="36.5" width="131" height="55" rx="27.5" stroke="#E2E8F0"/>
<path opacity="0.5" d="M59.364 68.144C58.708 68.144 58.124 67.96 57.612 67.592C57.1 67.216 56.696 66.704 56.4 66.056C56.112 65.4 55.968 64.648 55.968 63.8C55.968 62.952 56.112 62.204 56.4 61.556C56.696 60.9 57.096 60.388 57.6 60.02C58.112 59.644 58.7 59.456 59.364 59.456C60.028 59.456 60.616 59.644 61.128 60.02C61.64 60.388 62.04 60.9 62.328 61.556C62.624 62.204 62.772 62.952 62.772 63.8C62.772 64.648 62.624 65.4 62.328 66.056C62.04 66.704 61.64 67.216 61.128 67.592C60.624 67.96 60.036 68.144 59.364 68.144ZM59.376 66.884C59.768 66.884 60.116 66.752 60.42 66.488C60.732 66.224 60.972 65.86 61.14 65.396C61.316 64.932 61.404 64.4 61.404 63.8C61.404 63.2 61.316 62.668 61.14 62.204C60.972 61.732 60.732 61.364 60.42 61.1C60.116 60.836 59.764 60.704 59.364 60.704C58.964 60.704 58.612 60.836 58.308 61.1C58.004 61.364 57.764 61.728 57.588 62.192C57.42 62.656 57.336 63.192 57.336 63.8C57.336 64.4 57.42 64.932 57.588 65.396C57.764 65.86 58.004 66.224 58.308 66.488C58.62 66.752 58.976 66.884 59.376 66.884ZM65.6824 68V60.344L65.8144 59.6H67.0264V68H65.6824ZM63.8584 62.06V60.8C64.0424 60.808 64.2504 60.756 64.4824 60.644C64.7224 60.524 64.9584 60.368 65.1904 60.176C65.4224 59.984 65.6304 59.788 65.8144 59.588L66.6784 60.488C66.3984 60.784 66.1064 61.056 65.8024 61.304C65.4984 61.552 65.1824 61.744 64.8544 61.88C64.5344 62.016 64.2024 62.076 63.8584 62.06Z" fill="#475569"/>
<path d="M76.8038 68.18C76.1558 68.18 75.5838 68.048 75.0878 67.784C74.5998 67.512 74.2198 67.136 73.9478 66.656C73.6758 66.168 73.5398 65.608 73.5398 64.976V59.6H74.7158V64.976C74.7158 65.392 74.8038 65.76 74.9798 66.08C75.1638 66.4 75.4118 66.648 75.7238 66.824C76.0438 67 76.4118 67.088 76.8278 67.088C77.2438 67.088 77.6118 67 77.9318 66.824C78.2518 66.648 78.4998 66.4 78.6758 66.08C78.8518 65.76 78.9398 65.392 78.9398 64.976V59.6H80.1278V64.976C80.1278 65.608 79.9878 66.168 79.7078 66.656C79.4358 67.136 79.0478 67.512 78.5438 67.784C78.0478 68.048 77.4678 68.18 76.8038 68.18ZM82.1325 68V59.6H83.3445L88.0965 66.032V59.6H89.2845V68H88.0965L83.3085 61.508V68H82.1325ZM91.4254 68V59.6H94.0174C94.8174 59.6 95.5254 59.78 96.1414 60.14C96.7654 60.492 97.2534 60.984 97.6054 61.616C97.9574 62.248 98.1334 62.976 98.1334 63.8C98.1334 64.616 97.9574 65.34 97.6054 65.972C97.2534 66.604 96.7654 67.1 96.1414 67.46C95.5254 67.82 94.8174 68 94.0174 68H91.4254ZM92.6014 66.896H94.0174C94.4254 66.896 94.8054 66.82 95.1574 66.668C95.5094 66.508 95.8174 66.288 96.0814 66.008C96.3534 65.72 96.5614 65.388 96.7054 65.012C96.8574 64.636 96.9334 64.232 96.9334 63.8C96.9334 63.368 96.8574 62.964 96.7054 62.588C96.5614 62.212 96.3534 61.884 96.0814 61.604C95.8174 61.316 95.5094 61.096 95.1574 60.944C94.8054 60.784 94.4254 60.704 94.0174 60.704H92.6014V66.896ZM99.7223 68V59.6H104.774V60.68H100.898V63.176H104.39V64.232H100.898V66.92H104.798V68H99.7223ZM106.812 68V59.6H109.644C110.204 59.6 110.696 59.712 111.12 59.936C111.552 60.152 111.888 60.456 112.128 60.848C112.376 61.232 112.5 61.68 112.5 62.192C112.5 62.696 112.368 63.144 112.104 63.536C111.848 63.928 111.496 64.236 111.048 64.46C110.6 64.676 110.096 64.784 109.536 64.784H107.988V68H106.812ZM111.504 68L109.512 64.568L110.448 63.944L112.836 68H111.504ZM107.988 63.704H109.752C110.04 63.704 110.296 63.64 110.52 63.512C110.752 63.376 110.936 63.196 111.072 62.972C111.216 62.74 111.288 62.48 111.288 62.192C111.288 61.744 111.132 61.38 110.82 61.1C110.508 60.82 110.104 60.68 109.608 60.68H107.988V63.704ZM117.094 68.144C116.646 68.144 116.238 68.092 115.87 67.988C115.51 67.884 115.194 67.744 114.922 67.568C114.658 67.384 114.438 67.18 114.262 66.956C114.086 66.732 113.962 66.496 113.89 66.248L115.03 65.876C115.15 66.204 115.378 66.488 115.714 66.728C116.05 66.968 116.462 67.092 116.95 67.1C117.542 67.1 118.006 66.984 118.342 66.752C118.686 66.512 118.858 66.196 118.858 65.804C118.858 65.444 118.71 65.152 118.414 64.928C118.118 64.696 117.726 64.52 117.238 64.4L116.266 64.148C115.882 64.044 115.53 63.896 115.21 63.704C114.898 63.512 114.65 63.268 114.466 62.972C114.282 62.676 114.19 62.32 114.19 61.904C114.19 61.136 114.438 60.536 114.934 60.104C115.438 59.672 116.162 59.456 117.106 59.456C117.65 59.456 118.122 59.544 118.522 59.72C118.922 59.888 119.25 60.112 119.506 60.392C119.77 60.672 119.958 60.98 120.07 61.316L118.93 61.7C118.794 61.34 118.562 61.052 118.234 60.836C117.906 60.612 117.502 60.5 117.022 60.5C116.518 60.5 116.118 60.62 115.822 60.86C115.534 61.1 115.39 61.428 115.39 61.844C115.39 62.196 115.502 62.468 115.726 62.66C115.958 62.844 116.266 62.984 116.65 63.08L117.622 63.32C118.406 63.512 119.01 63.832 119.434 64.28C119.866 64.72 120.082 65.204 120.082 65.732C120.082 66.188 119.966 66.6 119.734 66.968C119.51 67.328 119.174 67.616 118.726 67.832C118.286 68.04 117.742 68.144 117.094 68.144ZM123.434 68V60.68H120.806V59.6H127.25V60.68H124.622V68H123.434ZM133.456 68L130.132 59.6H131.332L134.716 68H133.456ZM126.688 68L130.072 59.6H131.272L127.948 68H126.688ZM128.284 65.756V64.7H133.12V65.756H128.284ZM135.886 68V59.6H137.098L141.85 66.032V59.6H143.038V68H141.85L137.062 61.508V68H135.886ZM145.179 68V59.6H147.771C148.571 59.6 149.279 59.78 149.895 60.14C150.519 60.492 151.007 60.984 151.359 61.616C151.711 62.248 151.887 62.976 151.887 63.8C151.887 64.616 151.711 65.34 151.359 65.972C151.007 66.604 150.519 67.1 149.895 67.46C149.279 67.82 148.571 68 147.771 68H145.179ZM146.355 66.896H147.771C148.179 66.896 148.559 66.82 148.911 66.668C149.263 66.508 149.571 66.288 149.835 66.008C150.107 65.72 150.315 65.388 150.459 65.012C150.611 64.636 150.687 64.232 150.687 63.8C150.687 63.368 150.611 62.964 150.459 62.588C150.315 62.212 150.107 61.884 149.835 61.604C149.571 61.316 149.263 61.096 148.911 60.944C148.559 60.784 148.179 60.704 147.771 60.704H146.355V66.896Z" fill="#232323"/>
<rect x="38.5" y="130.5" width="131" height="55" rx="27.5" stroke="#E2E8F0"/>
<path opacity="0.5" d="M56.864 162.144C56.208 162.144 55.624 161.96 55.112 161.592C54.6 161.216 54.196 160.704 53.9 160.056C53.612 159.4 53.468 158.648 53.468 157.8C53.468 156.952 53.612 156.204 53.9 155.556C54.196 154.9 54.596 154.388 55.1 154.02C55.612 153.644 56.2 153.456 56.864 153.456C57.528 153.456 58.116 153.644 58.628 154.02C59.14 154.388 59.54 154.9 59.828 155.556C60.124 156.204 60.272 156.952 60.272 157.8C60.272 158.648 60.124 159.4 59.828 160.056C59.54 160.704 59.14 161.216 58.628 161.592C58.124 161.96 57.536 162.144 56.864 162.144ZM56.876 160.884C57.268 160.884 57.616 160.752 57.92 160.488C58.232 160.224 58.472 159.86 58.64 159.396C58.816 158.932 58.904 158.4 58.904 157.8C58.904 157.2 58.816 156.668 58.64 156.204C58.472 155.732 58.232 155.364 57.92 155.1C57.616 154.836 57.264 154.704 56.864 154.704C56.464 154.704 56.112 154.836 55.808 155.1C55.504 155.364 55.264 155.728 55.088 156.192C54.92 156.656 54.836 157.192 54.836 157.8C54.836 158.4 54.92 158.932 55.088 159.396C55.264 159.86 55.504 160.224 55.808 160.488C56.12 160.752 56.476 160.884 56.876 160.884ZM64.3104 162.144C63.7424 162.144 63.2584 162.04 62.8584 161.832C62.4664 161.616 62.1504 161.328 61.9104 160.968C61.6704 160.6 61.4944 160.176 61.3824 159.696C61.2704 159.208 61.2144 158.688 61.2144 158.136C61.2144 157.464 61.2824 156.844 61.4184 156.276C61.5624 155.708 61.7744 155.212 62.0544 154.788C62.3344 154.364 62.6824 154.036 63.0984 153.804C63.5224 153.572 64.0144 153.456 64.5744 153.456C65.0064 153.456 65.4304 153.524 65.8464 153.66C66.2704 153.788 66.6464 153.968 66.9744 154.2L66.2544 155.208C66.0064 155.032 65.7344 154.9 65.4384 154.812C65.1504 154.724 64.8824 154.68 64.6344 154.68C63.9384 154.68 63.3984 154.98 63.0144 155.58C62.6384 156.18 62.4664 157.112 62.4984 158.376L62.2104 158.16C62.3944 157.704 62.6864 157.34 63.0864 157.068C63.4864 156.788 63.9624 156.648 64.5144 156.648C65.0504 156.648 65.5264 156.772 65.9424 157.02C66.3584 157.26 66.6824 157.592 66.9144 158.016C67.1464 158.432 67.2624 158.908 67.2624 159.444C67.2624 159.964 67.1384 160.428 66.8904 160.836C66.6504 161.244 66.3064 161.564 65.8584 161.796C65.4184 162.028 64.9024 162.144 64.3104 162.144ZM64.3224 160.956C64.6184 160.956 64.8824 160.888 65.1144 160.752C65.3544 160.616 65.5424 160.432 65.6784 160.2C65.8144 159.96 65.8824 159.688 65.8824 159.384C65.8824 159.08 65.8144 158.808 65.6784 158.568C65.5424 158.328 65.3544 158.144 65.1144 158.016C64.8824 157.88 64.6184 157.812 64.3224 157.812C64.0184 157.812 63.7464 157.88 63.5064 158.016C63.2744 158.144 63.0904 158.328 62.9544 158.568C62.8184 158.808 62.7504 159.08 62.7504 159.384C62.7504 159.688 62.8184 159.96 62.9544 160.2C63.0904 160.432 63.2744 160.616 63.5064 160.752C63.7464 160.888 64.0184 160.956 64.3224 160.956Z" fill="#475569"/>
<path d="M75.0747 162V154.68H72.4467V153.6H78.8907V154.68H76.2627V162H75.0747ZM80.0973 162V153.6H85.1493V154.68H81.2733V157.176H84.7653V158.232H81.2733V160.92H85.1733V162H80.0973ZM89.8991 162.144C89.4511 162.144 89.0431 162.092 88.6751 161.988C88.3151 161.884 87.9991 161.744 87.7271 161.568C87.4631 161.384 87.2431 161.18 87.0671 160.956C86.8911 160.732 86.7671 160.496 86.6951 160.248L87.8351 159.876C87.9551 160.204 88.1831 160.488 88.5191 160.728C88.8551 160.968 89.2671 161.092 89.7551 161.1C90.3471 161.1 90.8111 160.984 91.1471 160.752C91.4911 160.512 91.6631 160.196 91.6631 159.804C91.6631 159.444 91.5151 159.152 91.2191 158.928C90.9231 158.696 90.5311 158.52 90.0431 158.4L89.0711 158.148C88.6871 158.044 88.3351 157.896 88.0151 157.704C87.7031 157.512 87.4551 157.268 87.2711 156.972C87.0871 156.676 86.9951 156.32 86.9951 155.904C86.9951 155.136 87.2431 154.536 87.7391 154.104C88.2431 153.672 88.9671 153.456 89.9111 153.456C90.4551 153.456 90.9271 153.544 91.3271 153.72C91.7271 153.888 92.0551 154.112 92.3111 154.392C92.5751 154.672 92.7631 154.98 92.8751 155.316L91.7351 155.7C91.5991 155.34 91.3671 155.052 91.0391 154.836C90.7111 154.612 90.3071 154.5 89.8271 154.5C89.3231 154.5 88.9231 154.62 88.6271 154.86C88.3391 155.1 88.1951 155.428 88.1951 155.844C88.1951 156.196 88.3071 156.468 88.5311 156.66C88.7631 156.844 89.0711 156.984 89.4551 157.08L90.4271 157.32C91.2111 157.512 91.8151 157.832 92.2391 158.28C92.6711 158.72 92.8871 159.204 92.8871 159.732C92.8871 160.188 92.7711 160.6 92.5391 160.968C92.3151 161.328 91.9791 161.616 91.5311 161.832C91.0911 162.04 90.5471 162.144 89.8991 162.144ZM96.2388 162V154.68H93.6108V153.6H100.055V154.68H97.4268V162H96.2388ZM106.219 162.168C105.739 162.168 105.311 162.076 104.935 161.892C104.567 161.7 104.275 161.436 104.059 161.1C103.843 160.764 103.735 160.384 103.735 159.96C103.735 159.616 103.799 159.308 103.927 159.036C104.063 158.764 104.239 158.516 104.455 158.292C104.679 158.06 104.923 157.852 105.187 157.668L106.411 156.828C106.595 156.7 106.779 156.568 106.963 156.432C107.147 156.288 107.303 156.128 107.431 155.952C107.567 155.768 107.635 155.564 107.635 155.34C107.635 155.052 107.531 154.824 107.323 154.656C107.123 154.488 106.867 154.404 106.555 154.404C106.283 154.404 106.051 154.492 105.859 154.668C105.667 154.844 105.571 155.064 105.571 155.328C105.571 155.552 105.639 155.756 105.775 155.94C105.919 156.116 106.091 156.328 106.291 156.576L107.803 158.388L110.779 162H109.387L106.903 159.012L105.391 157.188C105.199 156.94 105.031 156.716 104.887 156.516C104.743 156.316 104.631 156.12 104.551 155.928C104.479 155.728 104.443 155.524 104.443 155.316C104.443 154.956 104.535 154.636 104.719 154.356C104.903 154.068 105.151 153.844 105.463 153.684C105.783 153.516 106.135 153.432 106.519 153.432C106.943 153.432 107.323 153.512 107.659 153.672C107.995 153.832 108.259 154.056 108.451 154.344C108.643 154.632 108.739 154.968 108.739 155.352C108.739 155.672 108.655 155.972 108.487 156.252C108.319 156.524 108.087 156.788 107.791 157.044C107.495 157.3 107.155 157.56 106.771 157.824L105.895 158.436C105.727 158.548 105.567 158.676 105.415 158.82C105.271 158.956 105.151 159.112 105.055 159.288C104.967 159.464 104.923 159.68 104.923 159.936C104.923 160.296 105.047 160.592 105.295 160.824C105.543 161.048 105.867 161.16 106.267 161.16C106.659 161.16 107.031 161.096 107.383 160.968C107.735 160.832 108.043 160.644 108.307 160.404C108.579 160.156 108.791 159.856 108.943 159.504C109.095 159.152 109.171 158.76 109.171 158.328H110.275C110.275 159.072 110.099 159.736 109.747 160.32C109.403 160.896 108.927 161.348 108.319 161.676C107.711 162.004 107.011 162.168 106.219 162.168ZM114.855 162V153.6H117.687C118.247 153.6 118.739 153.712 119.163 153.936C119.595 154.152 119.931 154.456 120.171 154.848C120.419 155.232 120.543 155.68 120.543 156.192C120.543 156.696 120.411 157.144 120.147 157.536C119.891 157.928 119.539 158.236 119.091 158.46C118.643 158.676 118.139 158.784 117.579 158.784H116.031V162H114.855ZM119.547 162L117.555 158.568L118.491 157.944L120.879 162H119.547ZM116.031 157.704H117.795C118.083 157.704 118.339 157.64 118.563 157.512C118.795 157.376 118.979 157.196 119.115 156.972C119.259 156.74 119.331 156.48 119.331 156.192C119.331 155.744 119.175 155.38 118.863 155.1C118.551 154.82 118.147 154.68 117.651 154.68H116.031V157.704ZM122.425 162V153.6H127.477V154.68H123.601V157.176H127.093V158.232H123.601V160.92H127.501V162H122.425ZM129.515 162V153.6H134.603V154.68H130.691V157.32H134.099V158.4H130.691V162H129.515ZM136.066 162V153.6H137.242V162H136.066ZM139.382 162V153.6H140.594L145.346 160.032V153.6H146.534V162H145.346L140.558 155.508V162H139.382ZM148.675 162V153.6H153.727V154.68H149.851V157.176H153.343V158.232H149.851V160.92H153.751V162H148.675Z" fill="#232323"/>
<rect x="244.5" y="8.5" width="131" height="55" rx="27.5" stroke="#E2E8F0"/>
<path opacity="0.5" d="M283.364 40.144C282.708 40.144 282.124 39.96 281.612 39.592C281.1 39.216 280.696 38.704 280.4 38.056C280.112 37.4 279.968 36.648 279.968 35.8C279.968 34.952 280.112 34.204 280.4 33.556C280.696 32.9 281.096 32.388 281.6 32.02C282.112 31.644 282.7 31.456 283.364 31.456C284.028 31.456 284.616 31.644 285.128 32.02C285.64 32.388 286.04 32.9 286.328 33.556C286.624 34.204 286.772 34.952 286.772 35.8C286.772 36.648 286.624 37.4 286.328 38.056C286.04 38.704 285.64 39.216 285.128 39.592C284.624 39.96 284.036 40.144 283.364 40.144ZM283.376 38.884C283.768 38.884 284.116 38.752 284.42 38.488C284.732 38.224 284.972 37.86 285.14 37.396C285.316 36.932 285.404 36.4 285.404 35.8C285.404 35.2 285.316 34.668 285.14 34.204C284.972 33.732 284.732 33.364 284.42 33.1C284.116 32.836 283.764 32.704 283.364 32.704C282.964 32.704 282.612 32.836 282.308 33.1C282.004 33.364 281.764 33.728 281.588 34.192C281.42 34.656 281.336 35.192 281.336 35.8C281.336 36.4 281.42 36.932 281.588 37.396C281.764 37.86 282.004 38.224 282.308 38.488C282.62 38.752 282.976 38.884 283.376 38.884ZM287.882 40V38.932C287.882 38.684 287.946 38.428 288.074 38.164C288.202 37.892 288.382 37.62 288.614 37.348C288.854 37.076 289.134 36.82 289.454 36.58L290.918 35.524C291.102 35.396 291.27 35.248 291.422 35.08C291.582 34.912 291.71 34.736 291.806 34.552C291.902 34.36 291.95 34.172 291.95 33.988C291.95 33.756 291.89 33.544 291.77 33.352C291.658 33.16 291.494 33.008 291.278 32.896C291.07 32.784 290.814 32.728 290.51 32.728C290.238 32.728 289.994 32.784 289.778 32.896C289.57 33 289.398 33.14 289.262 33.316C289.126 33.492 289.03 33.684 288.974 33.892L287.546 33.628C287.626 33.244 287.794 32.888 288.05 32.56C288.314 32.224 288.65 31.956 289.058 31.756C289.474 31.556 289.946 31.456 290.474 31.456C291.066 31.456 291.578 31.564 292.01 31.78C292.45 31.996 292.786 32.296 293.018 32.68C293.258 33.056 293.378 33.488 293.378 33.976C293.378 34.472 293.242 34.92 292.97 35.32C292.706 35.712 292.334 36.088 291.854 36.448L290.51 37.444C290.246 37.636 290.03 37.844 289.862 38.068C289.694 38.284 289.578 38.516 289.514 38.764H293.486V40H287.882Z" fill="#475569"/>
<path d="M299.75 40V31.6H302.342C303.142 31.6 303.85 31.78 304.466 32.14C305.09 32.492 305.578 32.984 305.93 33.616C306.282 34.248 306.458 34.976 306.458 35.8C306.458 36.616 306.282 37.34 305.93 37.972C305.578 38.604 305.09 39.1 304.466 39.46C303.85 39.82 303.142 40 302.342 40H299.75ZM300.926 38.896H302.342C302.75 38.896 303.13 38.82 303.482 38.668C303.834 38.508 304.142 38.288 304.406 38.008C304.678 37.72 304.886 37.388 305.03 37.012C305.182 36.636 305.258 36.232 305.258 35.8C305.258 35.368 305.182 34.964 305.03 34.588C304.886 34.212 304.678 33.884 304.406 33.604C304.142 33.316 303.834 33.096 303.482 32.944C303.13 32.784 302.75 32.704 302.342 32.704H300.926V38.896ZM308.047 40V31.6H313.099V32.68H309.223V35.176H312.715V36.232H309.223V38.92H313.123V40H308.047ZM315.136 40V31.6H320.224V32.68H316.312V35.32H319.72V36.4H316.312V40H315.136ZM321.687 40V31.6H322.863V40H321.687ZM325.004 40V31.6H326.216L330.968 38.032V31.6H332.156V40H330.968L326.18 33.508V40H325.004ZM334.297 40V31.6H339.349V32.68H335.473V35.176H338.965V36.232H335.473V38.92H339.373V40H334.297Z" fill="#232323"/>
<rect x="231.5" y="159.5" width="159" height="55" rx="27.5" stroke="#E2E8F0"/>
<path opacity="0.5" d="M245.364 191.144C244.708 191.144 244.124 190.96 243.612 190.592C243.1 190.216 242.696 189.704 242.4 189.056C242.112 188.4 241.968 187.648 241.968 186.8C241.968 185.952 242.112 185.204 242.4 184.556C242.696 183.9 243.096 183.388 243.6 183.02C244.112 182.644 244.7 182.456 245.364 182.456C246.028 182.456 246.616 182.644 247.128 183.02C247.64 183.388 248.04 183.9 248.328 184.556C248.624 185.204 248.772 185.952 248.772 186.8C248.772 187.648 248.624 188.4 248.328 189.056C248.04 189.704 247.64 190.216 247.128 190.592C246.624 190.96 246.036 191.144 245.364 191.144ZM245.376 189.884C245.768 189.884 246.116 189.752 246.42 189.488C246.732 189.224 246.972 188.86 247.14 188.396C247.316 187.932 247.404 187.4 247.404 186.8C247.404 186.2 247.316 185.668 247.14 185.204C246.972 184.732 246.732 184.364 246.42 184.1C246.116 183.836 245.764 183.704 245.364 183.704C244.964 183.704 244.612 183.836 244.308 184.1C244.004 184.364 243.764 184.728 243.588 185.192C243.42 185.656 243.336 186.192 243.336 186.8C243.336 187.4 243.42 187.932 243.588 188.396C243.764 188.86 244.004 189.224 244.308 189.488C244.62 189.752 244.976 189.884 245.376 189.884ZM252.738 191.144C252.37 191.144 251.994 191.088 251.61 190.976C251.234 190.856 250.886 190.68 250.566 190.448C250.246 190.208 250.002 189.908 249.834 189.548L251.07 189.092C251.278 189.388 251.522 189.604 251.802 189.74C252.082 189.868 252.37 189.932 252.666 189.932C253.138 189.932 253.522 189.792 253.818 189.512C254.114 189.224 254.262 188.844 254.262 188.372C254.262 187.916 254.118 187.54 253.83 187.244C253.542 186.948 253.166 186.8 252.702 186.8C252.43 186.8 252.174 186.86 251.934 186.98C251.702 187.1 251.522 187.244 251.394 187.412L250.134 187.136L250.602 182.6H255.246V183.86H251.802L251.562 186.14C251.778 186.012 252.018 185.912 252.282 185.84C252.554 185.76 252.838 185.72 253.134 185.72C253.614 185.72 254.046 185.832 254.43 186.056C254.814 186.28 255.118 186.588 255.342 186.98C255.566 187.364 255.678 187.808 255.678 188.312C255.678 188.872 255.55 189.364 255.294 189.788C255.046 190.212 254.702 190.544 254.262 190.784C253.822 191.024 253.314 191.144 252.738 191.144Z" fill="#475569"/>
<path d="M261.867 191V182.6H264.459C265.259 182.6 265.967 182.78 266.583 183.14C267.207 183.492 267.695 183.984 268.047 184.616C268.399 185.248 268.575 185.976 268.575 186.8C268.575 187.616 268.399 188.34 268.047 188.972C267.695 189.604 267.207 190.1 266.583 190.46C265.967 190.82 265.259 191 264.459 191H261.867ZM263.043 189.896H264.459C264.867 189.896 265.247 189.82 265.599 189.668C265.951 189.508 266.259 189.288 266.523 189.008C266.795 188.72 267.003 188.388 267.147 188.012C267.299 187.636 267.375 187.232 267.375 186.8C267.375 186.368 267.299 185.964 267.147 185.588C267.003 185.212 266.795 184.884 266.523 184.604C266.259 184.316 265.951 184.096 265.599 183.944C265.247 183.784 264.867 183.704 264.459 183.704H263.043V189.896ZM270.164 191V182.6H275.216V183.68H271.34V186.176H274.832V187.232H271.34V189.92H275.24V191H270.164ZM279.966 191.144C279.518 191.144 279.11 191.092 278.742 190.988C278.382 190.884 278.066 190.744 277.794 190.568C277.53 190.384 277.31 190.18 277.134 189.956C276.958 189.732 276.834 189.496 276.762 189.248L277.902 188.876C278.022 189.204 278.25 189.488 278.586 189.728C278.922 189.968 279.334 190.092 279.822 190.1C280.414 190.1 280.878 189.984 281.214 189.752C281.558 189.512 281.73 189.196 281.73 188.804C281.73 188.444 281.582 188.152 281.286 187.928C280.99 187.696 280.598 187.52 280.11 187.4L279.138 187.148C278.754 187.044 278.402 186.896 278.082 186.704C277.77 186.512 277.522 186.268 277.338 185.972C277.154 185.676 277.062 185.32 277.062 184.904C277.062 184.136 277.31 183.536 277.806 183.104C278.31 182.672 279.034 182.456 279.978 182.456C280.522 182.456 280.994 182.544 281.394 182.72C281.794 182.888 282.122 183.112 282.378 183.392C282.642 183.672 282.83 183.98 282.942 184.316L281.802 184.7C281.666 184.34 281.434 184.052 281.106 183.836C280.778 183.612 280.374 183.5 279.894 183.5C279.39 183.5 278.99 183.62 278.694 183.86C278.406 184.1 278.262 184.428 278.262 184.844C278.262 185.196 278.374 185.468 278.598 185.66C278.83 185.844 279.138 185.984 279.522 186.08L280.494 186.32C281.278 186.512 281.882 186.832 282.306 187.28C282.738 187.72 282.954 188.204 282.954 188.732C282.954 189.188 282.838 189.6 282.606 189.968C282.382 190.328 282.046 190.616 281.598 190.832C281.158 191.04 280.614 191.144 279.966 191.144ZM284.601 191V182.6H285.777V191H284.601ZM291.734 191.144C290.886 191.144 290.13 190.96 289.466 190.592C288.81 190.216 288.294 189.704 287.918 189.056C287.55 188.4 287.366 187.652 287.366 186.812C287.366 185.956 287.55 185.204 287.918 184.556C288.294 183.9 288.81 183.388 289.466 183.02C290.13 182.644 290.886 182.456 291.734 182.456C292.198 182.456 292.642 182.532 293.066 182.684C293.498 182.828 293.886 183.032 294.23 183.296C294.582 183.552 294.866 183.848 295.082 184.184L294.134 184.808C293.974 184.56 293.766 184.34 293.51 184.148C293.254 183.956 292.97 183.808 292.658 183.704C292.354 183.592 292.046 183.536 291.734 183.536C291.118 183.536 290.57 183.676 290.09 183.956C289.618 184.236 289.246 184.62 288.974 185.108C288.702 185.596 288.566 186.164 288.566 186.812C288.566 187.444 288.698 188.004 288.962 188.492C289.234 188.98 289.61 189.364 290.09 189.644C290.578 189.924 291.134 190.064 291.758 190.064C292.262 190.064 292.71 189.96 293.102 189.752C293.502 189.544 293.814 189.252 294.038 188.876C294.27 188.5 294.386 188.064 294.386 187.568L295.526 187.46C295.526 188.204 295.362 188.852 295.034 189.404C294.714 189.956 294.27 190.384 293.702 190.688C293.134 190.992 292.478 191.144 291.734 191.144ZM292.346 187.64V186.656H295.526V187.52L294.926 187.64H292.346ZM296.988 191V182.6H298.2L302.952 189.032V182.6H304.14V191H302.952L298.164 184.508V191H296.988ZM311.239 191.168C310.759 191.168 310.331 191.076 309.955 190.892C309.587 190.7 309.295 190.436 309.079 190.1C308.863 189.764 308.755 189.384 308.755 188.96C308.755 188.616 308.819 188.308 308.947 188.036C309.083 187.764 309.259 187.516 309.475 187.292C309.699 187.06 309.943 186.852 310.207 186.668L311.431 185.828C311.615 185.7 311.799 185.568 311.983 185.432C312.167 185.288 312.323 185.128 312.451 184.952C312.587 184.768 312.655 184.564 312.655 184.34C312.655 184.052 312.551 183.824 312.343 183.656C312.143 183.488 311.887 183.404 311.575 183.404C311.303 183.404 311.071 183.492 310.879 183.668C310.687 183.844 310.591 184.064 310.591 184.328C310.591 184.552 310.659 184.756 310.795 184.94C310.939 185.116 311.111 185.328 311.311 185.576L312.823 187.388L315.799 191H314.407L311.923 188.012L310.411 186.188C310.219 185.94 310.051 185.716 309.907 185.516C309.763 185.316 309.651 185.12 309.571 184.928C309.499 184.728 309.463 184.524 309.463 184.316C309.463 183.956 309.555 183.636 309.739 183.356C309.923 183.068 310.171 182.844 310.483 182.684C310.803 182.516 311.155 182.432 311.539 182.432C311.963 182.432 312.343 182.512 312.679 182.672C313.015 182.832 313.279 183.056 313.471 183.344C313.663 183.632 313.759 183.968 313.759 184.352C313.759 184.672 313.675 184.972 313.507 185.252C313.339 185.524 313.107 185.788 312.811 186.044C312.515 186.3 312.175 186.56 311.791 186.824L310.915 187.436C310.747 187.548 310.587 187.676 310.435 187.82C310.291 187.956 310.171 188.112 310.075 188.288C309.987 188.464 309.943 188.68 309.943 188.936C309.943 189.296 310.067 189.592 310.315 189.824C310.563 190.048 310.887 190.16 311.287 190.16C311.679 190.16 312.051 190.096 312.403 189.968C312.755 189.832 313.063 189.644 313.327 189.404C313.599 189.156 313.811 188.856 313.963 188.504C314.115 188.152 314.191 187.76 314.191 187.328H315.295C315.295 188.072 315.119 188.736 314.767 189.32C314.423 189.896 313.947 190.348 313.339 190.676C312.731 191.004 312.031 191.168 311.239 191.168ZM319.875 191V182.6H321.051V191H319.875ZM324.895 191V183.68H322.267V182.6H328.711V183.68H326.083V191H324.895ZM329.918 191V182.6H334.97V183.68H331.094V186.176H334.586V187.232H331.094V189.92H334.994V191H329.918ZM337.007 191V182.6H339.839C340.399 182.6 340.891 182.712 341.315 182.936C341.747 183.152 342.083 183.456 342.323 183.848C342.571 184.232 342.695 184.68 342.695 185.192C342.695 185.696 342.563 186.144 342.299 186.536C342.043 186.928 341.691 187.236 341.243 187.46C340.795 187.676 340.291 187.784 339.731 187.784H338.183V191H337.007ZM341.699 191L339.707 187.568L340.643 186.944L343.031 191H341.699ZM338.183 186.704H339.947C340.235 186.704 340.491 186.64 340.715 186.512C340.947 186.376 341.131 186.196 341.267 185.972C341.411 185.74 341.483 185.48 341.483 185.192C341.483 184.744 341.327 184.38 341.015 184.1C340.703 183.82 340.299 183.68 339.803 183.68H338.183V186.704ZM350.421 191L347.097 182.6H348.297L351.681 191H350.421ZM343.653 191L347.037 182.6H348.237L344.913 191H343.653ZM345.249 188.756V187.7H350.085V188.756H345.249ZM354.286 191V183.68H351.658V182.6H358.102V183.68H355.474V191H354.286ZM359.308 191V182.6H360.484V191H359.308ZM366.261 191.144C365.445 191.144 364.721 190.96 364.089 190.592C363.457 190.224 362.961 189.712 362.601 189.056C362.249 188.4 362.073 187.648 362.073 186.8C362.073 185.952 362.249 185.204 362.601 184.556C362.961 183.9 363.453 183.388 364.077 183.02C364.701 182.644 365.421 182.456 366.237 182.456C367.053 182.456 367.773 182.644 368.397 183.02C369.021 183.388 369.509 183.9 369.861 184.556C370.213 185.204 370.389 185.952 370.389 186.8C370.389 187.648 370.213 188.4 369.861 189.056C369.509 189.712 369.021 190.224 368.397 190.592C367.781 190.96 367.069 191.144 366.261 191.144ZM366.261 190.064C366.837 190.064 367.345 189.924 367.785 189.644C368.225 189.364 368.569 188.98 368.817 188.492C369.065 188.004 369.189 187.44 369.189 186.8C369.189 186.168 369.061 185.608 368.805 185.12C368.557 184.624 368.209 184.236 367.761 183.956C367.321 183.676 366.813 183.536 366.237 183.536C365.661 183.536 365.149 183.676 364.701 183.956C364.253 184.236 363.901 184.624 363.645 185.12C363.397 185.608 363.273 186.168 363.273 186.8C363.273 187.44 363.401 188.004 363.657 188.492C363.913 188.98 364.265 189.364 364.713 189.644C365.169 189.924 365.685 190.064 366.261 190.064ZM371.976 191V182.6H373.188L377.94 189.032V182.6H379.128V191H377.94L373.152 184.508V191H371.976Z" fill="#232323"/>
<rect x="450.5" y="36.5" width="131" height="55" rx="27.5" stroke="#E2E8F0"/>
<path opacity="0.5" d="M484.864 68.144C484.208 68.144 483.624 67.96 483.112 67.592C482.6 67.216 482.196 66.704 481.9 66.056C481.612 65.4 481.468 64.648 481.468 63.8C481.468 62.952 481.612 62.204 481.9 61.556C482.196 60.9 482.596 60.388 483.1 60.02C483.612 59.644 484.2 59.456 484.864 59.456C485.528 59.456 486.116 59.644 486.628 60.02C487.14 60.388 487.54 60.9 487.828 61.556C488.124 62.204 488.272 62.952 488.272 63.8C488.272 64.648 488.124 65.4 487.828 66.056C487.54 66.704 487.14 67.216 486.628 67.592C486.124 67.96 485.536 68.144 484.864 68.144ZM484.876 66.884C485.268 66.884 485.616 66.752 485.92 66.488C486.232 66.224 486.472 65.86 486.64 65.396C486.816 64.932 486.904 64.4 486.904 63.8C486.904 63.2 486.816 62.668 486.64 62.204C486.472 61.732 486.232 61.364 485.92 61.1C485.616 60.836 485.264 60.704 484.864 60.704C484.464 60.704 484.112 60.836 483.808 61.1C483.504 61.364 483.264 61.728 483.088 62.192C482.92 62.656 482.836 63.192 482.836 63.8C482.836 64.4 482.92 64.932 483.088 65.396C483.264 65.86 483.504 66.224 483.808 66.488C484.12 66.752 484.476 66.884 484.876 66.884ZM492.046 68.144C491.59 68.144 491.174 68.076 490.798 67.94C490.422 67.804 490.106 67.612 489.85 67.364C489.594 67.116 489.41 66.836 489.298 66.524L490.546 66.056C490.61 66.168 490.698 66.292 490.81 66.428C490.922 66.564 491.07 66.684 491.254 66.788C491.438 66.884 491.674 66.932 491.962 66.932C492.418 66.932 492.778 66.804 493.042 66.548C493.314 66.284 493.45 65.952 493.45 65.552C493.45 65.264 493.374 65.016 493.222 64.808C493.078 64.6 492.85 64.44 492.538 64.328C492.234 64.216 491.85 64.16 491.386 64.16H491.002V63.176H491.35C491.838 63.176 492.29 63.232 492.706 63.344C493.13 63.456 493.502 63.624 493.822 63.848C494.15 64.064 494.402 64.328 494.578 64.64C494.762 64.952 494.854 65.304 494.854 65.696C494.854 66.2 494.722 66.636 494.458 67.004C494.202 67.372 493.862 67.656 493.438 67.856C493.014 68.048 492.55 68.144 492.046 68.144ZM491.002 63.944V63.008H491.386C492.002 63.008 492.47 62.904 492.79 62.696C493.11 62.488 493.27 62.196 493.27 61.82C493.27 61.604 493.214 61.412 493.102 61.244C492.998 61.068 492.846 60.928 492.646 60.824C492.446 60.72 492.21 60.668 491.938 60.668C491.762 60.668 491.59 60.696 491.422 60.752C491.254 60.808 491.098 60.896 490.954 61.016C490.81 61.136 490.69 61.292 490.594 61.484L489.382 61.04C489.502 60.704 489.694 60.42 489.958 60.188C490.222 59.948 490.53 59.768 490.882 59.648C491.234 59.52 491.602 59.456 491.986 59.456C492.498 59.456 492.954 59.552 493.354 59.744C493.762 59.936 494.082 60.204 494.314 60.548C494.554 60.884 494.674 61.272 494.674 61.712C494.674 62.08 494.582 62.404 494.398 62.684C494.222 62.964 493.978 63.2 493.666 63.392C493.354 63.576 492.998 63.716 492.598 63.812C492.206 63.9 491.786 63.944 491.338 63.944H491.002Z" fill="#475569"/>
<path d="M504.496 69.156C504.011 69.156 503.569 69.0997 503.17 68.987C502.78 68.8743 502.438 68.7227 502.143 68.532C501.857 68.3327 501.619 68.1117 501.428 67.869C501.238 67.6263 501.103 67.3707 501.025 67.102L502.26 66.699C502.39 67.0543 502.637 67.362 503.001 67.622C503.365 67.882 503.812 68.0163 504.34 68.025C504.982 68.025 505.484 67.8993 505.848 67.648C506.221 67.388 506.407 67.0457 506.407 66.621C506.407 66.231 506.247 65.9147 505.926 65.672C505.606 65.4207 505.181 65.23 504.652 65.1L503.599 64.827C503.183 64.7143 502.802 64.554 502.455 64.346C502.117 64.138 501.849 63.8737 501.649 63.553C501.45 63.2323 501.35 62.8467 501.35 62.396C501.35 61.564 501.619 60.914 502.156 60.446C502.702 59.978 503.487 59.744 504.509 59.744C505.099 59.744 505.61 59.8393 506.043 60.03C506.477 60.212 506.832 60.4547 507.109 60.758C507.395 61.0613 507.599 61.395 507.72 61.759L506.485 62.175C506.338 61.785 506.087 61.473 505.731 61.239C505.376 60.9963 504.938 60.875 504.418 60.875C503.872 60.875 503.439 61.005 503.118 61.265C502.806 61.525 502.65 61.8803 502.65 62.331C502.65 62.7123 502.772 63.007 503.014 63.215C503.266 63.4143 503.599 63.566 504.015 63.67L505.068 63.93C505.918 64.138 506.572 64.4847 507.031 64.97C507.499 65.4467 507.733 65.971 507.733 66.543C507.733 67.037 507.608 67.4833 507.356 67.882C507.114 68.272 506.75 68.584 506.264 68.818C505.788 69.0433 505.198 69.156 504.496 69.156ZM510.35 66.114L509.973 64.762L514.614 59.9H516.239L510.35 66.114ZM509.518 69V59.9H510.753V69H509.518ZM514.835 69L511.13 64.372L512.001 63.566L516.408 69H514.835ZM517.643 69V59.9H523.116V61.07H518.917V63.774H522.7V64.918H518.917V67.83H523.142V69H517.643ZM527.17 69V61.07H524.323V59.9H531.304V61.07H528.457V69H527.17ZM536.485 69.156C535.618 69.156 534.847 68.9567 534.171 68.558C533.495 68.1507 532.966 67.596 532.585 66.894C532.204 66.1833 532.013 65.3687 532.013 64.45C532.013 63.5313 532.204 62.721 532.585 62.019C532.966 61.3083 533.491 60.7537 534.158 60.355C534.825 59.9477 535.592 59.744 536.459 59.744C537.022 59.744 537.56 59.848 538.071 60.056C538.582 60.2553 539.037 60.537 539.436 60.901C539.843 61.2563 540.155 61.6723 540.372 62.149L539.228 62.669C539.063 62.3137 538.838 62.006 538.552 61.746C538.266 61.486 537.941 61.2823 537.577 61.135C537.222 60.9877 536.849 60.914 536.459 60.914C535.852 60.914 535.311 61.0657 534.834 61.369C534.357 61.6723 533.985 62.0883 533.716 62.617C533.447 63.1457 533.313 63.7567 533.313 64.45C533.313 65.1433 533.447 65.7587 533.716 66.296C533.993 66.8333 534.37 67.2537 534.847 67.557C535.332 67.8517 535.883 67.999 536.498 67.999C536.897 67.999 537.274 67.921 537.629 67.765C537.984 67.6003 538.301 67.3793 538.578 67.102C538.864 66.816 539.094 66.491 539.267 66.127L540.411 66.634C540.194 67.128 539.887 67.5657 539.488 67.947C539.089 68.3283 538.63 68.6273 538.11 68.844C537.599 69.052 537.057 69.156 536.485 69.156ZM548.168 69V59.9H549.442V69H548.168ZM541.993 69V59.9H543.267V69H541.993ZM543.059 64.905V63.735H548.571V64.905H543.059Z" fill="#232323"/>
<rect x="450.5" y="130.5" width="131" height="55" rx="27.5" stroke="#E2E8F0"/>
<path opacity="0.5" d="M471.864 162.144C471.208 162.144 470.624 161.96 470.112 161.592C469.6 161.216 469.196 160.704 468.9 160.056C468.612 159.4 468.468 158.648 468.468 157.8C468.468 156.952 468.612 156.204 468.9 155.556C469.196 154.9 469.596 154.388 470.1 154.02C470.612 153.644 471.2 153.456 471.864 153.456C472.528 153.456 473.116 153.644 473.628 154.02C474.14 154.388 474.54 154.9 474.828 155.556C475.124 156.204 475.272 156.952 475.272 157.8C475.272 158.648 475.124 159.4 474.828 160.056C474.54 160.704 474.14 161.216 473.628 161.592C473.124 161.96 472.536 162.144 471.864 162.144ZM471.876 160.884C472.268 160.884 472.616 160.752 472.92 160.488C473.232 160.224 473.472 159.86 473.64 159.396C473.816 158.932 473.904 158.4 473.904 157.8C473.904 157.2 473.816 156.668 473.64 156.204C473.472 155.732 473.232 155.364 472.92 155.1C472.616 154.836 472.264 154.704 471.864 154.704C471.464 154.704 471.112 154.836 470.808 155.1C470.504 155.364 470.264 155.728 470.088 156.192C469.92 156.656 469.836 157.192 469.836 157.8C469.836 158.4 469.92 158.932 470.088 159.396C470.264 159.86 470.504 160.224 470.808 160.488C471.12 160.752 471.476 160.884 471.876 160.884ZM480.018 162V160.2H476.13V159.096L479.886 153.6H481.35V158.988H482.91V160.2H481.35V162H480.018ZM477.606 158.988H480.018V155.448L477.606 158.988Z" fill="#475569"/>
<path d="M496.89 163L499.646 153.9H500.933L498.138 163H496.89ZM491.365 163L488.609 153.9H489.909L492.613 163H491.365ZM491.508 163L494.134 153.9H495.343L492.73 163H491.508ZM496.773 163L494.212 153.9H495.421L498.034 163H496.773ZM502.217 163V153.9H503.491V163H502.217ZM505.81 163V153.9H508.878C509.484 153.9 510.017 154.021 510.477 154.264C510.945 154.498 511.309 154.827 511.569 155.252C511.837 155.668 511.972 156.153 511.972 156.708C511.972 157.254 511.829 157.739 511.543 158.164C511.265 158.589 510.884 158.922 510.399 159.165C509.913 159.399 509.367 159.516 508.761 159.516H507.084V163H505.81ZM510.893 163L508.735 159.282L509.749 158.606L512.336 163H510.893ZM507.084 158.346H508.995C509.307 158.346 509.584 158.277 509.827 158.138C510.078 157.991 510.277 157.796 510.425 157.553C510.581 157.302 510.659 157.02 510.659 156.708C510.659 156.223 510.49 155.828 510.152 155.525C509.814 155.222 509.376 155.07 508.839 155.07H507.084V158.346ZM514.011 163V153.9H519.484V155.07H515.285V157.774H519.068V158.918H515.285V161.83H519.51V163H514.011ZM521.692 163V153.9H527.204V155.07H522.966V157.93H526.658V159.1H522.966V163H521.692ZM528.788 163V153.9H531.856C532.463 153.9 532.996 154.021 533.455 154.264C533.923 154.498 534.287 154.827 534.547 155.252C534.816 155.668 534.95 156.153 534.95 156.708C534.95 157.254 534.807 157.739 534.521 158.164C534.244 158.589 533.863 158.922 533.377 159.165C532.892 159.399 532.346 159.516 531.739 159.516H530.062V163H528.788ZM533.871 163L531.713 159.282L532.727 158.606L535.314 163H533.871ZM530.062 158.346H531.973C532.285 158.346 532.563 158.277 532.805 158.138C533.057 157.991 533.256 157.796 533.403 157.553C533.559 157.302 533.637 157.02 533.637 156.708C533.637 156.223 533.468 155.828 533.13 155.525C532.792 155.222 532.355 155.07 531.817 155.07H530.062V158.346ZM543.32 163L539.719 153.9H541.019L544.685 163H543.32ZM535.988 163L539.654 153.9H540.954L537.353 163H535.988ZM537.717 160.569V159.425H542.956V160.569H537.717ZM545.952 163V153.9H547.304L550.32 158.359L553.323 153.9H554.675V163H553.401V155.954L550.307 160.517L547.226 155.967V163H545.952ZM556.985 163V153.9H562.458V155.07H558.259V157.774H562.042V158.918H558.259V161.83H562.484V163H556.985Z" fill="#232323"/>
<path d="M586.5 61.5C586.224 61.5 586 61.7239 586 62C586 62.2761 586.224 62.5 586.5 62.5V62V61.5ZM586.5 158L591.5 160.887V155.113L586.5 158ZM586.5 62V62.5H603V62V61.5H586.5V62ZM619 78H618.5V142H619H619.5V78H619ZM603 158V157.5H591V158V158.5H603V158ZM619 142H618.5C618.5 150.56 611.56 157.5 603 157.5V158V158.5C612.113 158.5 619.5 151.113 619.5 142H619ZM603 62V62.5C611.56 62.5 618.5 69.4396 618.5 78H619H619.5C619.5 68.8873 612.113 61.5 603 61.5V62Z" fill="#232323"/>
<path d="M33.5 62L28.5 64.8868V59.1132L33.5 62ZM33.5 157.5C33.7761 157.5 34 157.724 34 158C34 158.276 33.7761 158.5 33.5 158.5V158V157.5ZM29 62V62.5H17V62V61.5H29V62ZM1 78H1.5V142H1H0.5V78H1ZM17 158V157.5H33.5V158V158.5H17V158ZM1 142H1.5C1.5 150.56 8.43959 157.5 17 157.5V158V158.5C7.8873 158.5 0.5 151.113 0.5 142H1ZM17 62V62.5C8.43959 62.5 1.5 69.4396 1.5 78H1H0.5C0.5 68.8873 7.8873 61.5 17 61.5V62Z" fill="#232323"/>
<path d="M446 61.5L441 58.6132V64.3868L446 61.5ZM380 32.5V33H401V32.5V32H380V32.5ZM430 61.5V62H441.5V61.5V61H430V61.5ZM415.5 47H415C415 55.2843 421.716 62 430 62V61.5V61C422.268 61 416 54.732 416 47H415.5ZM401 32.5V33C408.732 33 415 39.268 415 47H415.5H416C416 38.7157 409.284 32 401 32V32.5Z" fill="#232323"/>
<path d="M394.5 187L399.5 184.113V189.887L394.5 187ZM446 157.5C446.276 157.5 446.5 157.724 446.5 158C446.5 158.276 446.276 158.5 446 158.5V158V157.5ZM399 187V186.5H401V187V187.5H399V187ZM430 158V157.5H446V158V158.5H430V158ZM415.5 172.5H415C415 164.216 421.716 157.5 430 157.5V158V158.5C422.268 158.5 416 164.768 416 172.5H415.5ZM401 187V186.5C408.732 186.5 415 180.232 415 172.5H415.5H416C416 180.784 409.284 187.5 401 187.5V187Z" fill="#232323"/>
<path d="M174 158L179 160.887V155.113L174 158ZM225.5 187.5C225.776 187.5 226 187.276 226 187C226 186.724 225.776 186.5 225.5 186.5V187V187.5ZM178.5 158V158.5H180.5V158V157.5H178.5V158ZM209.5 187V187.5H225.5V187V186.5H209.5V187ZM195 172.5H194.5C194.5 180.784 201.216 187.5 209.5 187.5V187V186.5C201.768 186.5 195.5 180.232 195.5 172.5H195ZM180.5 158V158.5C188.232 158.5 194.5 164.768 194.5 172.5H195H195.5C195.5 164.216 188.784 157.5 180.5 157.5V158Z" fill="#232323"/>
<path d="M240 35.5L235 38.3868V32.6132L240 35.5ZM174 64.5V64H195V64.5V65H174V64.5ZM224 35.5V35H235.5V35.5V36H224V35.5ZM209.5 50H209C209 41.7157 215.716 35 224 35V35.5V36C216.268 36 210 42.268 210 50H209.5ZM195 64.5V64C202.732 64 209 57.732 209 50H209.5H210C210 58.2843 203.284 65 195 65V64.5Z" fill="#232323"/>
<path d="M215.5 54.5C215.5 54.2239 215.276 54 215 54C214.724 54 214.5 54.2239 214.5 54.5H215H215.5ZM194.5 71L199.5 73.8868V68.1132L194.5 71ZM195.625 71.5C195.901 71.5 196.125 71.2761 196.125 71C196.125 70.7239 195.901 70.5 195.625 70.5V71V71.5ZM197.875 70.5C197.599 70.5 197.375 70.7239 197.375 71C197.375 71.2761 197.599 71.5 197.875 71.5V71V70.5ZM200.617 71.4217C200.892 71.395 201.093 71.1505 201.067 70.8756C201.04 70.6008 200.795 70.3997 200.52 70.4264L200.569 70.9241L200.617 71.4217ZM203.501 69.8365C203.237 69.9165 203.088 70.1957 203.168 70.46C203.248 70.7242 203.527 70.8736 203.791 70.7935L203.646 70.315L203.501 69.8365ZM206.78 69.5543C207.023 69.424 207.115 69.1209 206.984 68.8775C206.854 68.6341 206.551 68.5424 206.308 68.6728L206.544 69.1136L206.78 69.5543ZM208.833 66.9823C208.62 67.1576 208.589 67.4727 208.764 67.6861C208.939 67.8994 209.255 67.9303 209.468 67.755L209.15 67.3686L208.833 66.9823ZM211.755 65.4679C211.93 65.2545 211.899 64.9394 211.686 64.7641C211.473 64.5888 211.158 64.6197 210.982 64.833L211.369 65.1504L211.755 65.4679ZM212.673 62.3076C212.542 62.551 212.634 62.8541 212.878 62.9844C213.121 63.1148 213.424 63.0232 213.554 62.7798L213.114 62.5437L212.673 62.3076ZM214.794 59.7911C214.874 59.5268 214.724 59.2477 214.46 59.1676C214.196 59.0875 213.917 59.2369 213.836 59.5012L214.315 59.6461L214.794 59.7911ZM214.426 56.5204C214.4 56.7953 214.601 57.0398 214.876 57.0665C215.15 57.0933 215.395 56.8922 215.422 56.6173L214.924 56.5689L214.426 56.5204ZM215.5 54.875C215.5 54.5989 215.276 54.375 215 54.375C214.724 54.375 214.5 54.5989 214.5 54.875H215H215.5ZM214.5 54.625C214.5 54.9011 214.724 55.125 215 55.125C215.276 55.125 215.5 54.9011 215.5 54.625H215H214.5ZM197.875 71V71.5H199V71V70.5H197.875V71ZM199 71V71.5C199.546 71.5 200.085 71.4735 200.617 71.4217L200.569 70.9241L200.52 70.4264C200.02 70.4751 199.513 70.5 199 70.5V71ZM203.646 70.315L203.791 70.7935C204.835 70.4773 205.835 70.0604 206.78 69.5543L206.544 69.1136L206.308 68.6728C205.42 69.1482 204.481 69.5396 203.501 69.8365L203.646 70.315ZM209.15 67.3686L209.468 67.755C210.303 67.069 211.069 66.3027 211.755 65.4679L211.369 65.1504L210.982 64.833C210.338 65.6176 209.618 66.3377 208.833 66.9823L209.15 67.3686ZM213.114 62.5437L213.554 62.7798C214.06 61.8349 214.477 60.8349 214.794 59.7911L214.315 59.6461L213.836 59.5012C213.54 60.4811 213.148 61.4202 212.673 62.3076L213.114 62.5437ZM214.924 56.5689L215.422 56.6173C215.474 56.0851 215.5 55.5456 215.5 55H215H214.5C214.5 55.5132 214.475 56.0203 214.426 56.5204L214.924 56.5689ZM215 55H215.5V54.875H215H214.5V55H215ZM215 54.625H215.5V54.5H215H214.5V54.625H215Z" fill="#94A3B8"/>
<path d="M432.002 67.4983C432.268 67.4268 432.427 67.1527 432.355 66.8859C432.284 66.6192 432.01 66.4609 431.743 66.5324L431.872 67.0153L432.002 67.4983ZM410.629 51.4844L409.134 57.0612L414.711 55.5669L410.629 51.4844ZM410.437 52.7005C410.508 52.9672 410.782 53.1255 411.049 53.054C411.316 52.9825 411.474 52.7084 411.403 52.4416L410.92 52.571L410.437 52.7005ZM411.985 54.615C411.914 54.3482 411.639 54.1899 411.373 54.2614C411.106 54.3329 410.948 54.6071 411.019 54.8738L411.502 54.7444L411.985 54.615ZM411.805 57.5024C411.902 57.761 412.19 57.8919 412.448 57.795C412.707 57.698 412.838 57.4098 412.741 57.1512L412.273 57.3268L411.805 57.5024ZM414.082 59.8777C413.936 59.6431 413.628 59.5711 413.394 59.7169C413.159 59.8626 413.087 60.1709 413.233 60.4055L413.657 60.1416L414.082 59.8777ZM415.203 62.9716C415.392 63.1729 415.709 63.183 415.91 62.9941C416.111 62.8051 416.121 62.4887 415.933 62.2873L415.568 62.6295L415.203 62.9716ZM418.219 64.2892C417.995 64.1285 417.682 64.1802 417.521 64.4048C417.361 64.6293 417.413 64.9416 417.637 65.1024L417.928 64.6958L418.219 64.2892ZM420.438 66.7196C420.69 66.8337 420.986 66.7223 421.1 66.4709C421.214 66.2194 421.103 65.9231 420.851 65.8089L420.645 66.2643L420.438 66.7196ZM423.728 66.7882C423.459 66.7253 423.19 66.8922 423.128 67.1611C423.065 67.43 423.232 67.699 423.5 67.7619L423.614 67.2751L423.728 66.7882ZM426.708 68.1853C426.984 68.1943 427.215 67.9778 427.224 67.7018C427.233 67.4258 427.016 67.1948 426.74 67.1859L426.724 67.6856L426.708 68.1853ZM429.772 66.9842C429.5 67.0295 429.316 67.2871 429.361 67.5595C429.406 67.8319 429.664 68.016 429.936 67.9707L429.854 67.4775L429.772 66.9842ZM431.639 67.5954C431.906 67.5239 432.064 67.2497 431.993 66.983C431.921 66.7163 431.647 66.558 431.381 66.6294L431.51 67.1124L431.639 67.5954ZM431.622 66.5647C431.355 66.6362 431.197 66.9104 431.268 67.1771C431.34 67.4438 431.614 67.6021 431.881 67.5307L431.751 67.0477L431.622 66.5647ZM411.502 54.7444L411.019 54.8738L411.31 55.9605L411.793 55.831L412.276 55.7016L411.985 54.615L411.502 54.7444ZM411.793 55.831L411.31 55.9605C411.452 56.4874 411.617 57.0017 411.805 57.5024L412.273 57.3268L412.741 57.1512C412.564 56.6808 412.409 56.1973 412.276 55.7016L411.793 55.831ZM413.657 60.1416L413.233 60.4055C413.808 61.3318 414.47 62.1899 415.203 62.9716L415.568 62.6295L415.933 62.2873C415.244 61.5532 414.623 60.7474 414.082 59.8777L413.657 60.1416ZM417.928 64.6958L417.637 65.1024C418.516 65.7312 419.454 66.2731 420.438 66.7196L420.645 66.2643L420.851 65.8089C419.927 65.3894 419.045 64.8802 418.219 64.2892L417.928 64.6958ZM423.614 67.2751L423.5 67.7619C424.544 68.0062 425.618 68.15 426.708 68.1853L426.724 67.6856L426.74 67.1859C425.717 67.1527 424.709 67.0177 423.728 66.7882L423.614 67.2751ZM429.854 67.4775L429.936 67.9707C430.464 67.883 430.992 67.7689 431.519 67.6277L431.389 67.1448L431.26 66.6618C430.764 66.7946 430.268 66.9018 429.772 66.9842L429.854 67.4775ZM431.389 67.1448L431.519 67.6277L431.639 67.5954L431.51 67.1124L431.381 66.6294L431.26 66.6618L431.389 67.1448ZM431.751 67.0477L431.881 67.5307L432.002 67.4983L431.872 67.0153L431.743 66.5324L431.622 66.5647L431.751 67.0477Z" fill="#94A3B8"/>
<path d="M411.056 165.956C411.01 166.228 411.193 166.486 411.465 166.532C411.738 166.579 411.996 166.395 412.042 166.123L411.549 166.039L411.056 165.956ZM434.522 153.205L430.076 149.521L429.11 155.213L434.522 153.205ZM433.497 152.523C433.225 152.477 432.966 152.66 432.92 152.933C432.874 153.205 433.057 153.463 433.329 153.509L433.413 153.016L433.497 152.523ZM431.111 153.132C431.383 153.179 431.642 152.995 431.688 152.723C431.734 152.451 431.551 152.193 431.279 152.147L431.195 152.64L431.111 153.132ZM428.562 151.765C428.287 151.745 428.047 151.952 428.028 152.228C428.008 152.503 428.215 152.742 428.491 152.762L428.526 152.263L428.562 151.765ZM425.453 152.845C425.727 152.81 425.921 152.56 425.887 152.286C425.852 152.012 425.602 151.818 425.328 151.853L425.391 152.349L425.453 152.845ZM422.174 152.574C421.912 152.662 421.771 152.945 421.859 153.207C421.947 153.469 422.23 153.61 422.492 153.522L422.333 153.048L422.174 152.574ZM419.719 154.766C419.959 154.629 420.042 154.323 419.905 154.084C419.768 153.844 419.462 153.761 419.222 153.898L419.471 154.332L419.719 154.766ZM416.585 155.77C416.376 155.951 416.354 156.266 416.535 156.475C416.716 156.684 417.032 156.706 417.24 156.525L416.912 156.147L416.585 155.77ZM415.151 158.732C415.32 158.513 415.28 158.199 415.062 158.03C414.844 157.861 414.53 157.9 414.361 158.119L414.756 158.425L415.151 158.732ZM412.639 160.858C412.515 161.105 412.616 161.405 412.863 161.528C413.11 161.651 413.41 161.551 413.534 161.304L413.086 161.081L412.639 160.858ZM412.453 164.144C412.525 163.877 412.368 163.602 412.101 163.53C411.835 163.458 411.56 163.615 411.488 163.881L411.97 164.012L412.453 164.144ZM411.119 165.586C411.073 165.858 411.256 166.116 411.528 166.163C411.8 166.209 412.059 166.026 412.105 165.753L411.612 165.67L411.119 165.586ZM412.063 166C412.109 165.728 411.926 165.469 411.654 165.423C411.382 165.377 411.123 165.56 411.077 165.832L411.57 165.916L412.063 166ZM431.195 152.64L431.279 152.147L430.17 151.958L430.086 152.451L430.002 152.944L431.111 153.132L431.195 152.64ZM430.086 152.451L430.17 151.958C429.632 151.867 429.095 151.803 428.562 151.765L428.526 152.263L428.491 152.762C428.992 152.798 429.496 152.858 430.002 152.944L430.086 152.451ZM425.391 152.349L425.328 151.853C424.246 151.99 423.19 152.233 422.174 152.574L422.333 153.048L422.492 153.522C423.446 153.202 424.438 152.973 425.453 152.845L425.391 152.349ZM419.471 154.332L419.222 153.898C418.285 154.434 417.401 155.061 416.585 155.77L416.912 156.147L417.24 156.525C418.007 155.859 418.838 155.27 419.719 154.766L419.471 154.332ZM414.756 158.425L414.361 158.119C413.703 158.965 413.125 159.881 412.639 160.858L413.086 161.081L413.534 161.304C413.99 160.387 414.533 159.527 415.151 158.732L414.756 158.425ZM411.97 164.012L411.488 163.881C411.348 164.397 411.231 164.925 411.14 165.463L411.633 165.546L412.126 165.63C412.212 165.124 412.321 164.628 412.453 164.144L411.97 164.012ZM411.633 165.546L411.14 165.463L411.119 165.586L411.612 165.67L412.105 165.753L412.126 165.63L411.633 165.546ZM411.57 165.916L411.077 165.832L411.056 165.956L411.549 166.039L412.042 166.123L412.063 166L411.57 165.916Z" fill="#94A3B8"/>
<path d="M611.5 84.5L608.613 89.5L614.387 89.5L611.5 84.5ZM611 137.5C611 137.776 611.224 138 611.5 138C611.776 138 612 137.776 612 137.5L611.5 137.5L611 137.5ZM611 85.9722C611 86.2484 611.224 86.4722 611.5 86.4722C611.776 86.4722 612 86.2484 612 85.9722L611.5 85.9722L611 85.9722ZM612 88.9167C612 88.6405 611.776 88.4167 611.5 88.4167C611.224 88.4167 611 88.6405 611 88.9167L611.5 88.9167L612 88.9167ZM611 91.8611C611 92.1373 611.224 92.3611 611.5 92.3611C611.776 92.3611 612 92.1373 612 91.8611L611.5 91.8611L611 91.8611ZM612 94.8056C612 94.5294 611.776 94.3056 611.5 94.3056C611.224 94.3056 611 94.5294 611 94.8056L611.5 94.8056L612 94.8056ZM611 97.75C611 98.0261 611.224 98.25 611.5 98.25C611.776 98.25 612 98.0261 612 97.75L611.5 97.75L611 97.75ZM612 100.694C612 100.418 611.776 100.194 611.5 100.194C611.224 100.194 611 100.418 611 100.694L611.5 100.694L612 100.694ZM611 103.639C611 103.915 611.224 104.139 611.5 104.139C611.776 104.139 612 103.915 612 103.639L611.5 103.639L611 103.639ZM612 106.583C612 106.307 611.776 106.083 611.5 106.083C611.224 106.083 611 106.307 611 106.583L611.5 106.583L612 106.583ZM611 109.528C611 109.804 611.224 110.028 611.5 110.028C611.776 110.028 612 109.804 612 109.528L611.5 109.528L611 109.528ZM612 112.472C612 112.196 611.776 111.972 611.5 111.972C611.224 111.972 611 112.196 611 112.472L611.5 112.472L612 112.472ZM611 115.417C611 115.693 611.224 115.917 611.5 115.917C611.776 115.917 612 115.693 612 115.417L611.5 115.417L611 115.417ZM612 118.361C612 118.085 611.776 117.861 611.5 117.861C611.224 117.861 611 118.085 611 118.361L611.5 118.361L612 118.361ZM611 121.306C611 121.582 611.224 121.806 611.5 121.806C611.776 121.806 612 121.582 612 121.306L611.5 121.306L611 121.306ZM612 124.25C612 123.974 611.776 123.75 611.5 123.75C611.224 123.75 611 123.974 611 124.25L611.5 124.25L612 124.25ZM611 127.194C611 127.471 611.224 127.694 611.5 127.694C611.776 127.694 612 127.471 612 127.194L611.5 127.194L611 127.194ZM612 130.139C612 129.863 611.776 129.639 611.5 129.639C611.224 129.639 611 129.863 611 130.139L611.5 130.139L612 130.139ZM611 133.083C611 133.359 611.224 133.583 611.5 133.583C611.776 133.583 612 133.359 612 133.083L611.5 133.083L611 133.083ZM612 136.028C612 135.752 611.776 135.528 611.5 135.528C611.224 135.528 611 135.752 611 136.028L611.5 136.028L612 136.028ZM611.5 88.9167L611 88.9167L611 91.8611L611.5 91.8611L612 91.8611L612 88.9167L611.5 88.9167ZM611.5 94.8056L611 94.8056L611 97.75L611.5 97.75L612 97.75L612 94.8056L611.5 94.8056ZM611.5 100.694L611 100.694L611 103.639L611.5 103.639L612 103.639L612 100.694L611.5 100.694ZM611.5 106.583L611 106.583L611 109.528L611.5 109.528L612 109.528L612 106.583L611.5 106.583ZM611.5 112.472L611 112.472L611 115.417L611.5 115.417L612 115.417L612 112.472L611.5 112.472ZM611.5 118.361L611 118.361L611 121.306L611.5 121.306L612 121.306L612 118.361L611.5 118.361ZM611.5 124.25L611 124.25L611 127.194L611.5 127.194L612 127.194L612 124.25L611.5 124.25ZM611.5 130.139L611 130.139L611 133.083L611.5 133.083L612 133.083L612 130.139L611.5 130.139ZM611.5 136.028L611 136.028L611 137.5L611.5 137.5L612 137.5L612 136.028L611.5 136.028Z" fill="#94A3B8"/>
<path d="M9 137.5L6.11325 132.5L11.8868 132.5L9 137.5ZM8.5 84.5C8.5 84.2239 8.72386 84 9 84C9.27614 84 9.5 84.2239 9.5 84.5L9 84.5L8.5 84.5ZM8.5 136.028C8.5 135.752 8.72386 135.528 9 135.528C9.27614 135.528 9.5 135.752 9.5 136.028L9 136.028L8.5 136.028ZM9.5 133.083C9.5 133.359 9.27614 133.583 9 133.583C8.72386 133.583 8.5 133.359 8.5 133.083L9 133.083L9.5 133.083ZM8.5 130.139C8.5 129.863 8.72386 129.639 9 129.639C9.27614 129.639 9.5 129.863 9.5 130.139L9 130.139L8.5 130.139ZM9.5 127.194C9.5 127.471 9.27614 127.694 9 127.694C8.72386 127.694 8.5 127.471 8.5 127.194L9 127.194L9.5 127.194ZM8.5 124.25C8.5 123.974 8.72386 123.75 9 123.75C9.27614 123.75 9.5 123.974 9.5 124.25L9 124.25L8.5 124.25ZM9.5 121.306C9.5 121.582 9.27614 121.806 9 121.806C8.72386 121.806 8.5 121.582 8.5 121.306L9 121.306L9.5 121.306ZM8.5 118.361C8.5 118.085 8.72386 117.861 9 117.861C9.27614 117.861 9.5 118.085 9.5 118.361L9 118.361L8.5 118.361ZM9.5 115.417C9.5 115.693 9.27614 115.917 9 115.917C8.72386 115.917 8.5 115.693 8.5 115.417L9 115.417L9.5 115.417ZM8.5 112.472C8.5 112.196 8.72386 111.972 9 111.972C9.27614 111.972 9.5 112.196 9.5 112.472L9 112.472L8.5 112.472ZM9.5 109.528C9.5 109.804 9.27614 110.028 9 110.028C8.72386 110.028 8.5 109.804 8.5 109.528L9 109.528L9.5 109.528ZM8.5 106.583C8.5 106.307 8.72386 106.083 9 106.083C9.27614 106.083 9.5 106.307 9.5 106.583L9 106.583L8.5 106.583ZM9.5 103.639C9.5 103.915 9.27614 104.139 9 104.139C8.72386 104.139 8.5 103.915 8.5 103.639L9 103.639L9.5 103.639ZM8.5 100.694C8.5 100.418 8.72386 100.194 9 100.194C9.27614 100.194 9.5 100.418 9.5 100.694L9 100.694L8.5 100.694ZM9.5 97.75C9.5 98.0261 9.27614 98.25 9 98.25C8.72386 98.25 8.5 98.0261 8.5 97.75L9 97.75L9.5 97.75ZM8.5 94.8056C8.5 94.5294 8.72386 94.3056 9 94.3056C9.27614 94.3056 9.5 94.5294 9.5 94.8056L9 94.8056L8.5 94.8056ZM9.5 91.8611C9.5 92.1373 9.27614 92.3611 9 92.3611C8.72386 92.3611 8.5 92.1373 8.5 91.8611L9 91.8611L9.5 91.8611ZM8.5 88.9167C8.5 88.6405 8.72386 88.4167 9 88.4167C9.27614 88.4167 9.5 88.6405 9.5 88.9167L9 88.9167L8.5 88.9167ZM9.5 85.9722C9.5 86.2484 9.27614 86.4722 9 86.4722C8.72386 86.4722 8.5 86.2484 8.5 85.9722L9 85.9722L9.5 85.9722ZM9 133.083L8.5 133.083L8.5 130.139L9 130.139L9.5 130.139L9.5 133.083L9 133.083ZM9 127.194L8.5 127.194L8.5 124.25L9 124.25L9.5 124.25L9.5 127.194L9 127.194ZM9 121.306L8.5 121.306L8.5 118.361L9 118.361L9.5 118.361L9.5 121.306L9 121.306ZM9 115.417L8.5 115.417L8.5 112.472L9 112.472L9.5 112.472L9.5 115.417L9 115.417ZM9 109.528L8.5 109.528L8.5 106.583L9 106.583L9.5 106.583L9.5 109.528L9 109.528ZM9 103.639L8.5 103.639L8.5 100.694L9 100.694L9.5 100.694L9.5 103.639L9 103.639ZM9 97.75L8.5 97.75L8.5 94.8056L9 94.8056L9.5 94.8056L9.5 97.75L9 97.75ZM9 91.8611L8.5 91.8611L8.5 88.9167L9 88.9167L9.5 88.9167L9.5 91.8611L9 91.8611ZM9 85.9722L8.5 85.9722L8.5 84.5L9 84.5L9.5 84.5L9.5 85.9722L9 85.9722Z" fill="#94A3B8"/>
<path opacity="0.5" d="M243.629 116V107.6H244.397L249.749 114.764V107.6H250.517V116H249.749L244.397 108.824V116H243.629ZM256.63 116.144C255.838 116.144 255.134 115.96 254.518 115.592C253.91 115.224 253.43 114.712 253.078 114.056C252.734 113.4 252.562 112.648 252.562 111.8C252.562 110.944 252.734 110.192 253.078 109.544C253.422 108.888 253.894 108.376 254.494 108.008C255.102 107.64 255.802 107.456 256.594 107.456C257.386 107.456 258.086 107.644 258.694 108.02C259.302 108.388 259.774 108.9 260.11 109.556C260.454 110.204 260.626 110.952 260.626 111.8C260.626 112.648 260.454 113.4 260.11 114.056C259.774 114.712 259.306 115.224 258.706 115.592C258.106 115.96 257.414 116.144 256.63 116.144ZM256.63 115.448C257.262 115.448 257.818 115.292 258.298 114.98C258.786 114.668 259.166 114.24 259.438 113.696C259.718 113.144 259.858 112.512 259.858 111.8C259.858 111.088 259.718 110.46 259.438 109.916C259.158 109.364 258.774 108.932 258.286 108.62C257.798 108.308 257.234 108.152 256.594 108.152C255.962 108.152 255.398 108.308 254.902 108.62C254.414 108.932 254.03 109.364 253.75 109.916C253.47 110.46 253.33 111.088 253.33 111.8C253.33 112.512 253.47 113.144 253.75 113.696C254.03 114.24 254.418 114.668 254.914 114.98C255.418 115.292 255.99 115.448 256.63 115.448ZM262.671 116V107.6H263.439L268.791 114.764V107.6H269.559V116H268.791L263.439 108.824V116H262.671ZM271.724 112.772V112.088H275.324V112.772H271.724ZM277.483 116V107.6H278.251V115.304H282.319V116H277.483ZM283.876 116V107.6H284.644V116H283.876ZM287.28 116V107.6H288.048L293.4 114.764V107.6H294.168V116H293.4L288.048 108.824V116H287.28ZM296.813 116V107.6H301.649V108.296H297.581V111.32H301.361V112.016H297.581V115.304H301.649V116H296.813ZM309.974 116L306.542 107.6H307.334L310.79 116H309.974ZM303.086 116L306.542 107.6H307.334L303.902 116H303.086ZM304.718 113.396V112.7H309.158V113.396H304.718ZM312.351 116V107.6H314.931C315.459 107.6 315.927 107.708 316.335 107.924C316.743 108.132 317.059 108.424 317.283 108.8C317.515 109.168 317.631 109.596 317.631 110.084C317.631 110.564 317.503 110.992 317.247 111.368C316.999 111.744 316.659 112.04 316.227 112.256C315.795 112.464 315.311 112.568 314.775 112.568H313.119V116H312.351ZM317.127 116L315.087 112.52L315.723 112.148L317.967 116H317.127ZM313.119 111.86H315.135C315.455 111.86 315.743 111.784 315.999 111.632C316.263 111.48 316.475 111.272 316.635 111.008C316.795 110.736 316.875 110.428 316.875 110.084C316.875 109.556 316.691 109.128 316.323 108.8C315.963 108.464 315.499 108.296 314.931 108.296H313.119V111.86ZM323.249 116V107.6H325.829C326.357 107.6 326.825 107.712 327.233 107.936C327.641 108.152 327.957 108.456 328.181 108.848C328.413 109.24 328.529 109.692 328.529 110.204C328.529 110.708 328.425 111.156 328.217 111.548C328.017 111.94 327.737 112.248 327.377 112.472C327.025 112.696 326.617 112.808 326.153 112.808H324.017V116H323.249ZM324.017 112.1H326.153C326.625 112.1 327.013 111.924 327.317 111.572C327.621 111.22 327.773 110.764 327.773 110.204C327.773 109.636 327.589 109.176 327.221 108.824C326.861 108.472 326.397 108.296 325.829 108.296H324.017V112.1ZM330.333 116V107.6H332.913C333.441 107.6 333.909 107.708 334.317 107.924C334.725 108.132 335.041 108.424 335.265 108.8C335.497 109.168 335.613 109.596 335.613 110.084C335.613 110.564 335.485 110.992 335.229 111.368C334.981 111.744 334.641 112.04 334.209 112.256C333.777 112.464 333.293 112.568 332.757 112.568H331.101V116H330.333ZM335.109 116L333.069 112.52L333.705 112.148L335.949 116H335.109ZM331.101 111.86H333.117C333.437 111.86 333.725 111.784 333.981 111.632C334.245 111.48 334.457 111.272 334.617 111.008C334.777 110.736 334.857 110.428 334.857 110.084C334.857 109.556 334.673 109.128 334.305 108.8C333.945 108.464 333.481 108.296 332.913 108.296H331.101V111.86ZM341.459 116.144C340.667 116.144 339.963 115.96 339.347 115.592C338.739 115.224 338.259 114.712 337.907 114.056C337.563 113.4 337.391 112.648 337.391 111.8C337.391 110.944 337.563 110.192 337.907 109.544C338.251 108.888 338.723 108.376 339.323 108.008C339.931 107.64 340.631 107.456 341.423 107.456C342.215 107.456 342.915 107.644 343.523 108.02C344.131 108.388 344.603 108.9 344.939 109.556C345.283 110.204 345.455 110.952 345.455 111.8C345.455 112.648 345.283 113.4 344.939 114.056C344.603 114.712 344.135 115.224 343.535 115.592C342.935 115.96 342.243 116.144 341.459 116.144ZM341.459 115.448C342.091 115.448 342.647 115.292 343.127 114.98C343.615 114.668 343.995 114.24 344.267 113.696C344.547 113.144 344.687 112.512 344.687 111.8C344.687 111.088 344.547 110.46 344.267 109.916C343.987 109.364 343.603 108.932 343.115 108.62C342.627 108.308 342.063 108.152 341.423 108.152C340.791 108.152 340.227 108.308 339.731 108.62C339.243 108.932 338.859 109.364 338.579 109.916C338.299 110.46 338.159 111.088 338.159 111.8C338.159 112.512 338.299 113.144 338.579 113.696C338.859 114.24 339.247 114.668 339.743 114.98C340.247 115.292 340.819 115.448 341.459 115.448ZM350.968 116.144C350.176 116.144 349.472 115.96 348.856 115.592C348.248 115.216 347.768 114.704 347.416 114.056C347.072 113.4 346.9 112.648 346.9 111.8C346.9 110.952 347.072 110.204 347.416 109.556C347.76 108.9 348.236 108.388 348.844 108.02C349.452 107.644 350.148 107.456 350.932 107.456C351.404 107.456 351.864 107.544 352.312 107.72C352.768 107.888 353.18 108.128 353.548 108.44C353.916 108.744 354.2 109.096 354.4 109.496L353.764 109.892C353.596 109.548 353.36 109.248 353.056 108.992C352.76 108.728 352.428 108.524 352.06 108.38C351.692 108.228 351.316 108.152 350.932 108.152C350.3 108.152 349.736 108.308 349.24 108.62C348.752 108.932 348.368 109.364 348.088 109.916C347.808 110.46 347.668 111.088 347.668 111.8C347.668 112.52 347.808 113.156 348.088 113.708C348.368 114.26 348.756 114.692 349.252 115.004C349.756 115.316 350.328 115.472 350.968 115.472C351.36 115.472 351.74 115.392 352.108 115.232C352.476 115.064 352.808 114.836 353.104 114.548C353.408 114.26 353.644 113.932 353.812 113.564L354.448 113.96C354.24 114.384 353.952 114.764 353.584 115.1C353.224 115.428 352.816 115.684 352.36 115.868C351.904 116.052 351.44 116.144 350.968 116.144ZM356.365 116V107.6H361.201V108.296H357.133V111.32H360.913V112.016H357.133V115.304H361.201V116H356.365ZM366.347 116.144C365.875 116.144 365.459 116.096 365.099 116C364.747 115.896 364.443 115.756 364.187 115.58C363.931 115.404 363.719 115.208 363.551 114.992C363.391 114.776 363.267 114.548 363.179 114.308L363.899 114.032C364.035 114.408 364.303 114.74 364.703 115.028C365.103 115.308 365.591 115.448 366.167 115.448C366.903 115.448 367.475 115.308 367.883 115.028C368.291 114.74 368.495 114.364 368.495 113.9C368.495 113.452 368.307 113.096 367.931 112.832C367.555 112.56 367.067 112.348 366.467 112.196L365.615 111.98C365.247 111.884 364.903 111.748 364.583 111.572C364.271 111.388 364.019 111.156 363.827 110.876C363.635 110.596 363.539 110.252 363.539 109.844C363.539 109.092 363.779 108.508 364.259 108.092C364.739 107.668 365.439 107.456 366.359 107.456C366.911 107.456 367.387 107.552 367.787 107.744C368.187 107.928 368.507 108.16 368.747 108.44C368.995 108.712 369.159 108.988 369.239 109.268L368.531 109.544C368.355 109.104 368.067 108.764 367.667 108.524C367.275 108.276 366.799 108.152 366.239 108.152C365.647 108.152 365.175 108.296 364.823 108.584C364.479 108.872 364.307 109.26 364.307 109.748C364.307 110.188 364.443 110.52 364.715 110.744C364.987 110.96 365.343 111.124 365.783 111.236L366.635 111.44C367.483 111.64 368.131 111.96 368.579 112.4C369.035 112.832 369.263 113.296 369.263 113.792C369.263 114.216 369.155 114.608 368.939 114.968C368.723 115.32 368.399 115.604 367.967 115.82C367.535 116.036 366.995 116.144 366.347 116.144ZM373.993 116.144C373.521 116.144 373.105 116.096 372.745 116C372.393 115.896 372.089 115.756 371.833 115.58C371.577 115.404 371.365 115.208 371.197 114.992C371.037 114.776 370.913 114.548 370.825 114.308L371.545 114.032C371.681 114.408 371.949 114.74 372.349 115.028C372.749 115.308 373.237 115.448 373.813 115.448C374.549 115.448 375.121 115.308 375.529 115.028C375.937 114.74 376.141 114.364 376.141 113.9C376.141 113.452 375.953 113.096 375.577 112.832C375.201 112.56 374.713 112.348 374.113 112.196L373.261 111.98C372.893 111.884 372.549 111.748 372.229 111.572C371.917 111.388 371.665 111.156 371.473 110.876C371.281 110.596 371.185 110.252 371.185 109.844C371.185 109.092 371.425 108.508 371.905 108.092C372.385 107.668 373.085 107.456 374.005 107.456C374.557 107.456 375.033 107.552 375.433 107.744C375.833 107.928 376.153 108.16 376.393 108.44C376.641 108.712 376.805 108.988 376.885 109.268L376.177 109.544C376.001 109.104 375.713 108.764 375.313 108.524C374.921 108.276 374.445 108.152 373.885 108.152C373.293 108.152 372.821 108.296 372.469 108.584C372.125 108.872 371.953 109.26 371.953 109.748C371.953 110.188 372.089 110.52 372.361 110.744C372.633 110.96 372.989 111.124 373.429 111.236L374.281 111.44C375.129 111.64 375.777 111.96 376.225 112.4C376.681 112.832 376.909 113.296 376.909 113.792C376.909 114.216 376.801 114.608 376.585 114.968C376.369 115.32 376.045 115.604 375.613 115.82C375.181 116.036 374.641 116.144 373.993 116.144Z" fill="#475569"/>
</svg>
