<svg width="24" height="24" viewBox="0 0 24 24" fill="none" xmlns="http://www.w3.org/2000/svg">
<path d="M20 10.0005L20.354 10.3545L20.707 10.0005L20.354 9.64648L20 10.0005ZM3.50003 18.0005C3.50003 18.1331 3.55271 18.2603 3.64648 18.354C3.74025 18.4478 3.86742 18.5005 4.00003 18.5005C4.13264 18.5005 4.25982 18.4478 4.35358 18.354C4.44735 18.2603 4.50003 18.1331 4.50003 18.0005H3.50003ZM15.354 15.3545L20.354 10.3545L19.646 9.64648L14.646 14.6465L15.354 15.3545ZM20.354 9.64648L15.354 4.64648L14.646 5.35448L19.646 10.3545L20.354 9.64648ZM20 9.50048H10V10.5005H20V9.50048ZM3.50003 16.0005V18.0005H4.50003V16.0005H3.50003ZM10 9.50048C8.27612 9.50048 6.62282 10.1853 5.40384 11.4043C4.18485 12.6233 3.50003 14.2766 3.50003 16.0005H4.50003C4.50003 14.5418 5.07949 13.1428 6.11094 12.1114C7.14239 11.0799 8.54134 10.5005 10 10.5005V9.50048Z" fill="#232323"/>
</svg>
