<svg width="24" height="24" viewBox="0 0 24 24" fill="none" xmlns="http://www.w3.org/2000/svg">
<path d="M3.45048 6.5999C3.45048 5.21394 3.45048 4.52096 3.76277 4.01157C3.93736 3.72628 4.17676 3.48689 4.46205 3.31229C4.97054 3 5.66442 3 7.05038 3C8.43634 3 9.12932 3 9.63871 3.31229C9.924 3.48689 10.1634 3.72628 10.338 4.01157C10.6503 4.52006 10.6503 5.21394 10.6503 6.5999C10.6503 7.98586 10.6503 8.67885 10.338 9.18823C10.1634 9.47352 9.924 9.71292 9.63871 9.88751C9.13022 10.1998 8.43634 10.1998 7.05038 10.1998C5.66442 10.1998 4.97144 10.1998 4.46205 9.88751C4.17697 9.71296 3.93732 9.47331 3.76277 9.18823C3.45048 8.67975 3.45048 7.98586 3.45048 6.5999ZM4.60425 14.5035C5.54652 13.5612 6.01721 13.0905 6.57519 12.9555C6.88754 12.8805 7.21322 12.8805 7.52557 12.9555C8.08355 13.0905 8.55424 13.5612 9.49651 14.5035C10.4388 15.4458 10.9095 15.9164 11.0445 16.4744C11.1182 16.7869 11.1182 17.1123 11.0445 17.4248C10.9095 17.9828 10.4388 18.4544 9.49651 19.3958C8.55424 20.3371 8.08355 20.8087 7.52557 20.9437C7.21322 21.0188 6.88754 21.0188 6.57519 20.9437C6.01721 20.8087 5.54652 20.338 4.60425 19.3958C3.66197 18.4535 3.19128 17.9828 3.05629 17.4248C2.98124 17.1125 2.98124 16.7868 3.05629 16.4744C3.19128 15.9164 3.66197 15.4449 4.60425 14.5035ZM13.8002 17.3996C13.8002 16.0136 13.8002 15.3207 14.1125 14.8113C14.2871 14.526 14.5265 14.2866 14.8118 14.112C15.3203 13.7997 16.0141 13.7997 17.4001 13.7997C18.7861 13.7997 19.479 13.7997 19.9893 14.112C20.2737 14.2866 20.5131 14.526 20.6877 14.8113C21 15.3198 21 16.0136 21 17.3996C21 18.7856 21 19.4786 20.6877 19.9888C20.513 20.2733 20.2738 20.5125 19.9893 20.6872C19.479 20.9995 18.7861 20.9995 17.4001 20.9995C16.0141 20.9995 15.3212 20.9995 14.8118 20.6872C14.5268 20.5129 14.2872 20.2736 14.1125 19.9888C13.8002 19.4786 13.8002 18.7856 13.8002 17.3996Z" fill="white" stroke="white" stroke-width="1.13681"/>
<path d="M17.4001 3V10.1998M21 6.5999H13.8002" stroke="white" stroke-width="1.13681" stroke-linecap="round" stroke-linejoin="round"/>
</svg>
