<svg width="24" height="24" viewBox="0 0 24 24" fill="none" xmlns="http://www.w3.org/2000/svg">
<path d="M19 9.62C19 12.2 17.73 14.185 15.798 15.492C15.348 15.796 15.123 15.948 15.012 16.122C14.902 16.294 14.863 16.522 14.788 16.976L14.728 17.329C14.596 18.127 14.529 18.526 14.249 18.763C13.969 19 13.565 19 12.756 19H10.144C9.335 19 8.931 19 8.651 18.763C8.371 18.526 8.305 18.127 8.171 17.329L8.113 16.976C8.037 16.523 8 16.296 7.89 16.124C7.78 15.952 7.554 15.798 7.103 15.49C5.192 14.183 4 12.199 4 9.62C4 5.413 7.358 2 11.5 2C12.0039 1.99947 12.5065 2.0504 13 2.152" stroke="#232323" stroke-width="1.2" stroke-linecap="round" stroke-linejoin="round"/>
<path d="M13.5 19V20C13.5 20.943 13.5 21.414 13.207 21.707C12.914 22 12.443 22 11.5 22C10.557 22 10.086 22 9.793 21.707C9.5 21.414 9.5 20.943 9.5 20V19M16.5 2L16.758 2.697C17.096 3.611 17.265 4.068 17.598 4.401C17.932 4.735 18.389 4.904 19.303 5.242L20 5.5L19.303 5.758C18.389 6.096 17.932 6.265 17.599 6.598C17.265 6.932 17.096 7.389 16.758 8.303L16.5 9L16.242 8.303C15.904 7.389 15.735 6.932 15.402 6.599C15.068 6.265 14.611 6.096 13.697 5.758L13 5.5L13.697 5.242C14.611 4.904 15.068 4.735 15.401 4.402C15.735 4.068 15.904 3.611 16.242 2.697L16.5 2Z" stroke="#232323" stroke-width="1.2" stroke-linejoin="round"/>
</svg>
